<?xml version="1.0" standalone="no"?>
<!DOCTYPE svg PUBLIC "-//W3C//DTD SVG 20010904//EN"
 "http://www.w3.org/TR/2001/REC-SVG-20010904/DTD/svg10.dtd">
<svg version="1.0" xmlns="http://www.w3.org/2000/svg"
 width="407.000000pt" height="407.000000pt" viewBox="0 0 407.000000 407.000000"
 preserveAspectRatio="xMidYMid meet">
<metadata>
Created by potrace 1.11, written by Peter Selinger 2001-2013
</metadata>
<g transform="translate(0.000000,407.000000) scale(0.100000,-0.100000)"
fill="#000000" stroke="none">
<path d="M0 2469 l0 -1601 25 6 c13 3 472 109 1018 236 l994 229 989 -229
c544 -125 1001 -231 1017 -235 l27 -7 0 1601 0 1601 -2035 0 -2035 0 0 -1601z
m1620 -129 l0 -790 -465 0 -465 0 0 790 0 790 465 0 465 0 0 -790z m1760 0 l0
-790 -465 0 -465 0 0 790 0 790 465 0 465 0 0 -790z"/>
<path d="M1190 643 l1 -228 297 -207 297 -208 250 0 250 0 297 208 297 207 1
228 0 227 -845 0 -845 0 0 -227z"/>
</g>
</svg>
